# xmcd
#
# Track frame offsets: 
#        150
#        21222
#        39292
#        57264
#        75497
#        91377
#        110705
#        131013
#        149788
#        165940
#        182960
#        201038
#        218922
#        242317
#        311845
#
# Disc length: 4322 seconds
#
# Revision: 27
# Processed by: cddbd v1.5.2PL0 Copyright (c) Steve Scherf et al.
# Submitted via: ExactAudioCopy v1.3
#
DISCID=cf10e00f
DTITLE=Joss Stone - Mind Body and Soul
DYEAR=2004
DGENRE=Soul
TTITLE0=Right to Be Wrong
TTITLE1=Jet Lag
TTITLE2=You Had Me
TTITLE3=Spoiled
TTITLE4=Don’t Cha Wanna Ride
TTITLE5=Less Is More
TTITLE6=Security
TTITLE7=Young at Heart
TTITLE8=Snakes and Ladders
TTITLE9=Understand
TTITLE10=Don’t Know How
TTITLE11=Torn and Tattered
TTITLE12=Killing Time
TTITLE13=Sleep like a Child
TTITLE14=Daniel
EXTD=
EXTT0=
EXTT1=
EXTT2=
EXTT3=
EXTT4=
EXTT5=
EXTT6=
EXTT7=
EXTT8=
EXTT9=
EXTT10=
EXTT11=
EXTT12=
EXTT13=
EXTT14=
PLAYORDER=
